<?xml version="1.0" encoding="iso-8859-1"?>
<!-- Uploaded to: SVG Repo, www.svgrepo.com, Generator: SVG Repo Mixer Tools -->
<svg fill="#000000" version="1.1" id="Capa_1" xmlns="http://www.w3.org/2000/svg" xmlns:xlink="http://www.w3.org/1999/xlink" 
	 viewBox="0 0 512 512" xml:space="preserve">
<g>
	<g>
		<path d="M423.008,156.022h-111.08v15.786h111.08c40.365,0,73.206,32.841,73.206,73.206v70.019
			c0,40.365-32.841,73.206-73.206,73.206H224.869c-40.365,0-73.207-32.841-73.207-73.206v-70.019
			c0-40.365,32.841-73.206,73.207-73.206h2.034l67.806-37.421c12.595-6.95,26.856-10.625,41.242-10.625
			c8.893,0,16.128,7.236,16.128,16.129v8.008h15.786v-8.008c0-17.599-14.316-31.916-31.914-31.916
			c-17.046,0-33.946,4.354-48.87,12.59l-64.289,35.479c-33.49,0.771-62.45,20.146-76.973,48.16H0v184.173h151.548l0.114-22.826
			c16.076,23.223,42.887,38.473,73.207,38.473h198.139c49.071,0,88.992-39.922,88.992-88.992v-70.018
			C512,195.944,472.078,156.022,423.008,156.022z M112.608,372.592H39.992v-20.501c0-19.932,16.288-36.148,36.308-36.148
			s36.308,16.216,36.308,36.148V372.592z M135.762,372.591h-7.367v-20.5c0-28.636-23.37-51.935-52.095-51.935
			s-52.095,23.298-52.095,51.935v20.501h-8.419v-25.865c2.725-30.673,28.55-54.807,59.919-54.807
			c31.982,0,58.207,25.084,60.056,56.612V372.591z M48.411,251.564L48.411,251.564v29.662c-2.894,1.119-5.707,2.401-8.419,3.852
			v-40.881h72.617v41.537c-2.709-1.512-5.52-2.86-8.419-4.037v-30.133H48.411z M88.403,267.35v9.865
			c-4.132-0.699-8.37-1.082-12.697-1.082c-3.911,0-7.754,0.298-11.508,0.871v-9.655H88.403z M135.762,305.669
			c-2.256-2.913-4.719-5.656-7.367-8.21v-69.047H24.206v67.912c-3.051,2.819-5.863,5.889-8.419,9.17v-85.502h119.975V305.669z"/>
	</g>
</g>
<g>
	<g>
		<path d="M464.184,305.882c0,27.75-22.576,50.326-50.328,50.326h-29.862v15.786h29.862c36.456,0,66.114-29.658,66.114-66.113
			H464.184z"/>
	</g>
</g>
<g>
	<g>
		<rect x="344.14" y="355.749" width="24.206" height="15.786"/>
	</g>
</g>
<g>
	<g>
		<rect x="64.197" y="339.963" width="23.153" height="15.786"/>
	</g>
</g>
</svg>