<?xml version="1.0" encoding="iso-8859-1"?>
<!-- Uploaded to: SVG Repo, www.svgrepo.com, Generator: SVG Repo Mixer Tools -->
<!DOCTYPE svg PUBLIC "-//W3C//DTD SVG 1.1//EN" "http://www.w3.org/Graphics/SVG/1.1/DTD/svg11.dtd">
<svg fill="#ff0336" height="800px" width="800px" version="1.1" id="Capa_1" xmlns="http://www.w3.org/2000/svg" xmlns:xlink="http://www.w3.org/1999/xlink" 
	 viewBox="0 0 297 297" xml:space="preserve">
<g>
	<path d="M69.25,99.768l-3.514,21.548c6.865,0.418,13.429,1.96,19.515,4.442l3.606-19.195h80.601l-27.634,66.563h-18.768
		c0.531,3.257,0.819,6.595,0.819,10s-0.288,6.743-0.819,10h18.571l7.505,19.552c1.526,3.977,5.317,6.42,9.338,6.42
		c1.191,0,2.403-0.215,3.581-0.667c5.156-1.98,7.732-7.764,5.753-12.919l-8.537-22.241l31.972-77.014l10.568,24.658
		c5.583-3.569,11.766-6.27,18.371-7.906l-21.888-51.07h36.773c4.032,0,7.313,3.28,7.313,7.313s-3.28,7.313-7.313,7.313
		c-5.523,0-10,4.478-10,10s4.477,10,10,10c15.061,0,27.313-12.252,27.313-27.313s-12.252-27.313-27.313-27.313h-51.938
		c-3.361,0-6.498,1.688-8.349,4.495c-1.851,2.807-2.167,6.355-0.843,9.444l8.865,20.686H89.25V71.938h24.625c5.522,0,10-4.478,10-10
		s-4.478-10-10-10H61.938c-5.522,0-10,4.478-10,10s4.478,10,10,10h7.313V99.768z"/>
	<path d="M235.063,121.188c-5.131,0-10.114,0.638-14.885,1.82l24.076,56.178c2.176,5.076-0.176,10.955-5.252,13.131
		c-1.284,0.551-2.621,0.811-3.935,0.811c-3.88,0-7.571-2.271-9.196-6.063l-24.065-56.151
		c-17.227,11.011-28.682,30.293-28.682,52.211c0,34.152,27.785,61.938,61.938,61.938S297,217.277,297,183.125
		S269.215,121.188,235.063,121.188z"/>
	<path d="M123.056,173.125c-3.51-21.526-18.151-39.351-37.805-47.367l-8.899,47.367H123.056z"/>
	<path d="M56.602,189.51c-1.9-2.29-2.682-5.307-2.132-8.231l11.266-59.963c-1.257-0.076-2.522-0.128-3.798-0.128
		C27.785,121.188,0,148.973,0,183.125s27.785,61.938,61.938,61.938c30.747,0,56.322-22.525,61.119-51.938H64.298
		C61.322,193.125,58.501,191.8,56.602,189.51z"/>
</g>
</svg>